<svg xmlns="http://www.w3.org/2000/svg" viewBox="0 0 320 160" role="img" aria-labelledby="t d"><title id="t">Swim bike run and shopping cycle</title><desc id="d">Swim, bike, run, and credit card icons form a recurring loop.</desc><style>.s{fill:none;stroke:#cbd5e1;stroke-width:3;stroke-linecap:round;stroke-linejoin:round}.i{stroke:#818cf8}.e{stroke:#34d399}.a{stroke:#fbbf24}.orbit{animation:orbit 8s linear infinite;transform-origin:160px 80px}@keyframes orbit{to{transform:rotate(360deg)}}@media(prefers-reduced-motion:reduce){*{animation:none!important}}</style><path d="M58 80a102 55 0 0 1 204 0 102 55 0 0 1-204 0z" class="s" stroke-dasharray="4 8"/><g><path d="M41 47q8-8 16 0t16 0m-32 10q8-8 16 0t16 0" class="s i"/><circle cx="274" cy="46" r="13" class="s e"/><circle cx="274" cy="46" r="4" class="s e"/><path d="M261 33l26 26m0-26-26 26" class="s e"/><circle cx="274" cy="114" r="7" class="s a"/><path d="M274 121v18m0-11 12 8m-12-8-9 7m9 4-8 11m8-11 9 10" class="s a"/><rect x="31" y="101" width="42" height="28" rx="4" class="s i"/><path d="M32 109h40" class="s a"/><text x="40" y="122" fill="#fbbf24" font-size="9" font-family="sans-serif">BUY</text></g><g class="orbit"><circle cx="160" cy="25" r="5" fill="#fbbf24"/><path d="M160 18v-8" class="s a"/></g><text x="112" y="79" fill="#e2e8f0" font-size="12" font-weight="700" font-family="sans-serif">REPEAT</text></svg>